<?xml version="1.0" encoding="UTF-8" standalone="no"?>
<!DOCTYPE svg PUBLIC "-//W3C//DTD SVG 1.1//EN"
 "http://www.w3.org/Graphics/SVG/1.1/DTD/svg11.dtd">
<!-- Generated by graphviz version 2.46.0 (20210119.1425)
 -->
<!-- Title: dependencies Pages: 1 -->
<svg width="2859pt" height="284pt"
 viewBox="0.00 0.00 2859.00 284.00" xmlns="http://www.w3.org/2000/svg" xmlns:xlink="http://www.w3.org/1999/xlink">
<g id="graph0" class="graph" transform="scale(1 1) rotate(0) translate(4 280)">
<title>dependencies</title>
<polygon fill="white" stroke="transparent" points="-4,4 -4,-280 2855,-280 2855,4 -4,4"/>
<text text-anchor="start" x="1404.51" y="-42.4" font-family="sans-serif" font-weight="bold" font-size="14.00">Legend</text>
<polygon fill="#ffffb3" stroke="transparent" points="1191.5,-10 1191.5,-30 1211.5,-30 1211.5,-10 1191.5,-10"/>
<text text-anchor="start" x="1215.13" y="-15.4" font-family="sans-serif" font-size="14.00"> &#160;Declarations</text>
<polygon fill="#8dd3c7" stroke="transparent" points="1304.5,-10 1304.5,-30 1324.5,-30 1324.5,-10 1304.5,-10"/>
<text text-anchor="start" x="1328.23" y="-15.4" font-family="sans-serif" font-size="14.00"> &#160;Module</text>
<polygon fill="#80b1d3" stroke="transparent" points="1390.5,-10 1390.5,-30 1410.5,-30 1410.5,-10 1390.5,-10"/>
<text text-anchor="start" x="1414.28" y="-15.4" font-family="sans-serif" font-size="14.00"> &#160;Bootstrap</text>
<polygon fill="#fdb462" stroke="transparent" points="1487.5,-10 1487.5,-30 1507.5,-30 1507.5,-10 1487.5,-10"/>
<text text-anchor="start" x="1511.17" y="-15.4" font-family="sans-serif" font-size="14.00"> &#160;Providers</text>
<polygon fill="#fb8072" stroke="transparent" points="1583.5,-10 1583.5,-30 1603.5,-30 1603.5,-10 1583.5,-10"/>
<text text-anchor="start" x="1607.23" y="-15.4" font-family="sans-serif" font-size="14.00"> &#160;Exports</text>
<g id="clust1" class="cluster">
<title>cluster_AppModule</title>
<polygon fill="none" stroke="black" stroke-dasharray="1,5" points="8,-70 8,-268 2843,-268 2843,-70 8,-70"/>
</g>
<g id="clust2" class="cluster">
<title>cluster_AppModule_declarations</title>
<polygon fill="none" stroke="black" points="702,-78 702,-130 2835,-130 2835,-78 702,-78"/>
</g>
<g id="clust21" class="cluster">
<title>cluster_AppModule_providers</title>
<polygon fill="none" stroke="black" points="272,-78 272,-130 694,-130 694,-78 272,-78"/>
</g>
<g id="clust18" class="cluster">
<title>cluster_AppModule_imports</title>
<polygon fill="none" stroke="black" points="16,-78 16,-130 264,-130 264,-78 16,-78"/>
</g>
<g id="clust20" class="cluster">
<title>cluster_AppModule_bootstrap</title>
<polygon fill="none" stroke="black" points="1465,-208 1465,-260 1589,-260 1589,-208 1465,-208"/>
</g>
<!-- AppComponent -->
<g id="node1" class="node">
<title>AppComponent</title>
<polygon fill="#ffffb3" stroke="black" points="2826.94,-122 2721.06,-122 2721.06,-86 2826.94,-86 2826.94,-122"/>
<text text-anchor="middle" x="2774" y="-99.8" font-family="Times,serif" font-size="14.00">AppComponent</text>
</g>
<!-- AppModule -->
<g id="node16" class="node">
<title>AppModule</title>
<polygon fill="#8dd3c7" stroke="black" points="1568.66,-187 1565.66,-191 1544.66,-191 1541.66,-187 1485.34,-187 1485.34,-151 1568.66,-151 1568.66,-187"/>
<text text-anchor="middle" x="1527" y="-164.8" font-family="Times,serif" font-size="14.00">AppModule</text>
</g>
<!-- AppComponent&#45;&gt;AppModule -->
<g id="edge1" class="edge">
<title>AppComponent&#45;&gt;AppModule</title>
<path fill="none" stroke="black" d="M2774,-122.15C2774,-145.76 2774,-184 2774,-184 2774,-184 1578.85,-184 1578.85,-184"/>
<polygon fill="black" stroke="black" points="1578.85,-180.5 1568.85,-184 1578.85,-187.5 1578.85,-180.5"/>
</g>
<!-- BodyComponent -->
<g id="node2" class="node">
<title>BodyComponent</title>
<polygon fill="#ffffb3" stroke="black" points="2702.67,-122 2591.33,-122 2591.33,-86 2702.67,-86 2702.67,-122"/>
<text text-anchor="middle" x="2647" y="-99.8" font-family="Times,serif" font-size="14.00">BodyComponent</text>
</g>
<!-- BodyComponent&#45;&gt;AppModule -->
<g id="edge2" class="edge">
<title>BodyComponent&#45;&gt;AppModule</title>
<path fill="none" stroke="black" d="M2647,-122.01C2647,-144.49 2647,-180 2647,-180 2647,-180 1578.86,-180 1578.86,-180"/>
<polygon fill="black" stroke="black" points="1578.86,-176.5 1568.86,-180 1578.86,-183.5 1578.86,-176.5"/>
</g>
<!-- DialogComponent -->
<g id="node3" class="node">
<title>DialogComponent</title>
<polygon fill="#ffffb3" stroke="black" points="2572.94,-122 2453.06,-122 2453.06,-86 2572.94,-86 2572.94,-122"/>
<text text-anchor="middle" x="2513" y="-99.8" font-family="Times,serif" font-size="14.00">DialogComponent</text>
</g>
<!-- DialogComponent&#45;&gt;AppModule -->
<g id="edge3" class="edge">
<title>DialogComponent&#45;&gt;AppModule</title>
<path fill="none" stroke="black" d="M2513,-122.04C2513,-143.66 2513,-177 2513,-177 2513,-177 1578.74,-177 1578.74,-177"/>
<polygon fill="black" stroke="black" points="1578.74,-173.5 1568.74,-177 1578.74,-180.5 1578.74,-173.5"/>
</g>
<!-- EventsComponent -->
<g id="node4" class="node">
<title>EventsComponent</title>
<polygon fill="#ffffb3" stroke="black" points="2435.94,-122 2316.06,-122 2316.06,-86 2435.94,-86 2435.94,-122"/>
<text text-anchor="middle" x="2376" y="-99.8" font-family="Times,serif" font-size="14.00">EventsComponent</text>
</g>
<!-- EventsComponent&#45;&gt;AppModule -->
<g id="edge4" class="edge">
<title>EventsComponent&#45;&gt;AppModule</title>
<path fill="none" stroke="black" d="M2376,-122.13C2376,-142.57 2376,-173 2376,-173 2376,-173 1578.81,-173 1578.81,-173"/>
<polygon fill="black" stroke="black" points="1578.81,-169.5 1568.81,-173 1578.81,-176.5 1578.81,-169.5"/>
</g>
<!-- ExamsComponent -->
<g id="node5" class="node">
<title>ExamsComponent</title>
<polygon fill="#ffffb3" stroke="black" points="2298.94,-122 2179.06,-122 2179.06,-86 2298.94,-86 2298.94,-122"/>
<text text-anchor="middle" x="2239" y="-99.8" font-family="Times,serif" font-size="14.00">ExamsComponent</text>
</g>
<!-- ExamsComponent&#45;&gt;AppModule -->
<g id="edge5" class="edge">
<title>ExamsComponent&#45;&gt;AppModule</title>
<path fill="none" stroke="black" d="M2239,-122.11C2239,-141.34 2239,-169 2239,-169 2239,-169 1578.88,-169 1578.88,-169"/>
<polygon fill="black" stroke="black" points="1578.88,-165.5 1568.88,-169 1578.88,-172.5 1578.88,-165.5"/>
</g>
<!-- FooterComponent -->
<g id="node6" class="node">
<title>FooterComponent</title>
<polygon fill="#ffffb3" stroke="black" points="2160.88,-122 2043.12,-122 2043.12,-86 2160.88,-86 2160.88,-122"/>
<text text-anchor="middle" x="2102" y="-99.8" font-family="Times,serif" font-size="14.00">FooterComponent</text>
</g>
<!-- FooterComponent&#45;&gt;AppModule -->
<g id="edge6" class="edge">
<title>FooterComponent&#45;&gt;AppModule</title>
<path fill="none" stroke="black" d="M2102,-122.27C2102,-140.56 2102,-166 2102,-166 2102,-166 1578.82,-166 1578.82,-166"/>
<polygon fill="black" stroke="black" points="1578.82,-162.5 1568.82,-166 1578.82,-169.5 1578.82,-162.5"/>
</g>
<!-- FreeRoomComponent -->
<g id="node7" class="node">
<title>FreeRoomComponent</title>
<polygon fill="#ffffb3" stroke="black" points="2025.43,-122 1884.57,-122 1884.57,-86 2025.43,-86 2025.43,-122"/>
<text text-anchor="middle" x="1955" y="-99.8" font-family="Times,serif" font-size="14.00">FreeRoomComponent</text>
</g>
<!-- FreeRoomComponent&#45;&gt;AppModule -->
<g id="edge7" class="edge">
<title>FreeRoomComponent&#45;&gt;AppModule</title>
<path fill="none" stroke="black" d="M1955,-122.03C1955,-139.06 1955,-162 1955,-162 1955,-162 1578.82,-162 1578.82,-162"/>
<polygon fill="black" stroke="black" points="1578.82,-158.5 1568.82,-162 1578.82,-165.5 1578.82,-158.5"/>
</g>
<!-- HeaderComponent -->
<g id="node8" class="node">
<title>HeaderComponent</title>
<polygon fill="#ffffb3" stroke="black" points="1866.74,-122 1745.26,-122 1745.26,-86 1866.74,-86 1866.74,-122"/>
<text text-anchor="middle" x="1806" y="-99.8" font-family="Times,serif" font-size="14.00">HeaderComponent</text>
</g>
<!-- HeaderComponent&#45;&gt;AppModule -->
<g id="edge8" class="edge">
<title>HeaderComponent&#45;&gt;AppModule</title>
<path fill="none" stroke="black" d="M1806,-122.01C1806,-138.05 1806,-159 1806,-159 1806,-159 1578.77,-159 1578.77,-159"/>
<polygon fill="black" stroke="black" points="1578.77,-155.5 1568.77,-159 1578.77,-162.5 1578.77,-155.5"/>
</g>
<!-- InfoComponent -->
<g id="node9" class="node">
<title>InfoComponent</title>
<polygon fill="#ffffb3" stroke="black" points="1727.15,-122 1622.85,-122 1622.85,-86 1727.15,-86 1727.15,-122"/>
<text text-anchor="middle" x="1675" y="-99.8" font-family="Times,serif" font-size="14.00">InfoComponent</text>
</g>
<!-- InfoComponent&#45;&gt;AppModule -->
<g id="edge9" class="edge">
<title>InfoComponent&#45;&gt;AppModule</title>
<path fill="none" stroke="black" d="M1675,-122.12C1675,-136.78 1675,-155 1675,-155 1675,-155 1579.01,-155 1579.01,-155"/>
<polygon fill="black" stroke="black" points="1579.02,-151.5 1569.01,-155 1579.01,-158.5 1579.02,-151.5"/>
</g>
<!-- LecturesPlanComponent -->
<g id="node10" class="node">
<title>LecturesPlanComponent</title>
<polygon fill="#ffffb3" stroke="black" points="1604.41,-122 1449.59,-122 1449.59,-86 1604.41,-86 1604.41,-122"/>
<text text-anchor="middle" x="1527" y="-99.8" font-family="Times,serif" font-size="14.00">LecturesPlanComponent</text>
</g>
<!-- LecturesPlanComponent&#45;&gt;AppModule -->
<g id="edge10" class="edge">
<title>LecturesPlanComponent&#45;&gt;AppModule</title>
<path fill="none" stroke="black" d="M1527,-122.11C1527,-122.11 1527,-140.99 1527,-140.99"/>
<polygon fill="black" stroke="black" points="1523.5,-140.99 1527,-150.99 1530.5,-140.99 1523.5,-140.99"/>
</g>
<!-- LoginComponent -->
<g id="node11" class="node">
<title>LoginComponent</title>
<polygon fill="#ffffb3" stroke="black" points="1431.28,-122 1316.72,-122 1316.72,-86 1431.28,-86 1431.28,-122"/>
<text text-anchor="middle" x="1374" y="-99.8" font-family="Times,serif" font-size="14.00">LoginComponent</text>
</g>
<!-- LoginComponent&#45;&gt;AppModule -->
<g id="edge11" class="edge">
<title>LoginComponent&#45;&gt;AppModule</title>
<path fill="none" stroke="black" d="M1374,-122.12C1374,-136.78 1374,-155 1374,-155 1374,-155 1475.19,-155 1475.19,-155"/>
<polygon fill="black" stroke="black" points="1475.19,-158.5 1485.19,-155 1475.19,-151.5 1475.19,-158.5"/>
</g>
<!-- MensaComponent -->
<g id="node12" class="node">
<title>MensaComponent</title>
<polygon fill="#ffffb3" stroke="black" points="1298.15,-122 1179.85,-122 1179.85,-86 1298.15,-86 1298.15,-122"/>
<text text-anchor="middle" x="1239" y="-99.8" font-family="Times,serif" font-size="14.00">MensaComponent</text>
</g>
<!-- MensaComponent&#45;&gt;AppModule -->
<g id="edge12" class="edge">
<title>MensaComponent&#45;&gt;AppModule</title>
<path fill="none" stroke="black" d="M1239,-122.01C1239,-138.05 1239,-159 1239,-159 1239,-159 1475.12,-159 1475.12,-159"/>
<polygon fill="black" stroke="black" points="1475.12,-162.5 1485.12,-159 1475.12,-155.5 1475.12,-162.5"/>
</g>
<!-- NachrichtenComponent -->
<g id="node13" class="node">
<title>NachrichtenComponent</title>
<polygon fill="#ffffb3" stroke="black" points="1161.74,-122 1012.26,-122 1012.26,-86 1161.74,-86 1161.74,-122"/>
<text text-anchor="middle" x="1087" y="-99.8" font-family="Times,serif" font-size="14.00">NachrichtenComponent</text>
</g>
<!-- NachrichtenComponent&#45;&gt;AppModule -->
<g id="edge13" class="edge">
<title>NachrichtenComponent&#45;&gt;AppModule</title>
<path fill="none" stroke="black" d="M1087,-122.03C1087,-139.06 1087,-162 1087,-162 1087,-162 1475.21,-162 1475.21,-162"/>
<polygon fill="black" stroke="black" points="1475.21,-165.5 1485.21,-162 1475.21,-158.5 1475.21,-165.5"/>
</g>
<!-- NavbarComponent -->
<g id="node14" class="node">
<title>NavbarComponent</title>
<polygon fill="#ffffb3" stroke="black" points="994.03,-122 871.97,-122 871.97,-86 994.03,-86 994.03,-122"/>
<text text-anchor="middle" x="933" y="-99.8" font-family="Times,serif" font-size="14.00">NavbarComponent</text>
</g>
<!-- NavbarComponent&#45;&gt;AppModule -->
<g id="edge14" class="edge">
<title>NavbarComponent&#45;&gt;AppModule</title>
<path fill="none" stroke="black" d="M933,-122.27C933,-140.56 933,-166 933,-166 933,-166 1475.23,-166 1475.23,-166"/>
<polygon fill="black" stroke="black" points="1475.23,-169.5 1485.23,-166 1475.23,-162.5 1475.23,-169.5"/>
</g>
<!-- NavigationComponent -->
<g id="node15" class="node">
<title>NavigationComponent</title>
<polygon fill="#ffffb3" stroke="black" points="853.54,-122 710.46,-122 710.46,-86 853.54,-86 853.54,-122"/>
<text text-anchor="middle" x="782" y="-99.8" font-family="Times,serif" font-size="14.00">NavigationComponent</text>
</g>
<!-- NavigationComponent&#45;&gt;AppModule -->
<g id="edge15" class="edge">
<title>NavigationComponent&#45;&gt;AppModule</title>
<path fill="none" stroke="black" d="M782,-122.11C782,-141.34 782,-169 782,-169 782,-169 1475.08,-169 1475.08,-169"/>
<polygon fill="black" stroke="black" points="1475.08,-172.5 1485.08,-169 1475.08,-165.5 1475.08,-172.5"/>
</g>
<!-- AppComponent  -->
<g id="node19" class="node">
<title>AppComponent </title>
<polygon fill="#80b1d3" stroke="black" points="1581.44,-252 1472.56,-252 1472.56,-216 1581.44,-216 1581.44,-252"/>
<text text-anchor="middle" x="1527" y="-229.8" font-family="Times,serif" font-size="14.00">AppComponent </text>
</g>
<!-- AppModule&#45;&gt;AppComponent  -->
<g id="edge18" class="edge">
<title>AppModule&#45;&gt;AppComponent </title>
<path fill="none" stroke="black" stroke-dasharray="1,5" d="M1527,-187.11C1527,-187.11 1527,-205.99 1527,-205.99"/>
<polygon fill="black" stroke="black" points="1523.5,-205.99 1527,-215.99 1530.5,-205.99 1523.5,-205.99"/>
</g>
<!-- AppRoutingModule -->
<g id="node17" class="node">
<title>AppRoutingModule</title>
<polygon fill="#8dd3c7" stroke="black" points="256.27,-122 253.27,-126 232.27,-126 229.27,-122 127.73,-122 127.73,-86 256.27,-86 256.27,-122"/>
<text text-anchor="middle" x="192" y="-99.8" font-family="Times,serif" font-size="14.00">AppRoutingModule</text>
</g>
<!-- AppRoutingModule&#45;&gt;AppModule -->
<g id="edge16" class="edge">
<title>AppRoutingModule&#45;&gt;AppModule</title>
<path fill="none" stroke="black" d="M192,-122.01C192,-144.49 192,-180 192,-180 192,-180 1475.21,-180 1475.21,-180"/>
<polygon fill="black" stroke="black" points="1475.21,-183.5 1485.21,-180 1475.21,-176.5 1475.21,-183.5"/>
</g>
<!-- I18nModule -->
<g id="node18" class="node">
<title>I18nModule</title>
<polygon fill="#8dd3c7" stroke="black" points="109.71,-122 106.71,-126 85.71,-126 82.71,-122 24.29,-122 24.29,-86 109.71,-86 109.71,-122"/>
<text text-anchor="middle" x="67" y="-99.8" font-family="Times,serif" font-size="14.00">I18nModule</text>
</g>
<!-- I18nModule&#45;&gt;AppModule -->
<g id="edge17" class="edge">
<title>I18nModule&#45;&gt;AppModule</title>
<path fill="none" stroke="black" d="M67,-122.15C67,-145.76 67,-184 67,-184 67,-184 1475.27,-184 1475.27,-184"/>
<polygon fill="black" stroke="black" points="1475.27,-187.5 1485.27,-184 1475.27,-180.5 1475.27,-187.5"/>
</g>
<!-- AuthorizationService -->
<g id="node20" class="node">
<title>AuthorizationService</title>
<ellipse fill="#fdb462" stroke="black" cx="592" cy="-104" rx="93.76" ry="18"/>
<text text-anchor="middle" x="592" y="-99.8" font-family="Times,serif" font-size="14.00">AuthorizationService</text>
</g>
<!-- AuthorizationService&#45;&gt;AppModule -->
<g id="edge19" class="edge">
<title>AuthorizationService&#45;&gt;AppModule</title>
<path fill="none" stroke="black" d="M592,-122.13C592,-142.57 592,-173 592,-173 592,-173 1475.31,-173 1475.31,-173"/>
<polygon fill="black" stroke="black" points="1475.31,-176.5 1485.31,-173 1475.31,-169.5 1475.31,-176.5"/>
</g>
<!-- SideNavigationService -->
<g id="node21" class="node">
<title>SideNavigationService</title>
<ellipse fill="#fdb462" stroke="black" cx="380" cy="-104" rx="100.14" ry="18"/>
<text text-anchor="middle" x="380" y="-99.8" font-family="Times,serif" font-size="14.00">SideNavigationService</text>
</g>
<!-- SideNavigationService&#45;&gt;AppModule -->
<g id="edge20" class="edge">
<title>SideNavigationService&#45;&gt;AppModule</title>
<path fill="none" stroke="black" d="M380,-122.04C380,-143.66 380,-177 380,-177 380,-177 1475.16,-177 1475.16,-177"/>
<polygon fill="black" stroke="black" points="1475.16,-180.5 1485.16,-177 1475.16,-173.5 1475.16,-180.5"/>
</g>
</g>
</svg>
