<?xml version="1.0" encoding="UTF-8" standalone="no"?>
<!DOCTYPE svg PUBLIC "-//W3C//DTD SVG 1.1//EN"
 "http://www.w3.org/Graphics/SVG/1.1/DTD/svg11.dtd">
<!-- Generated by graphviz version 2.46.0 (20210119.1425)
 -->
<!-- Title: dependencies Pages: 1 -->
<svg width="2859pt" height="284pt"
 viewBox="0.00 0.00 2859.00 284.00" xmlns="http://www.w3.org/2000/svg" xmlns:xlink="http://www.w3.org/1999/xlink">
<g id="graph0" class="graph" transform="scale(1 1) rotate(0) translate(4 280)">
<title>dependencies</title>
<polygon fill="white" stroke="transparent" points="-4,4 -4,-280 2855,-280 2855,4 -4,4"/>
<text text-anchor="start" x="1404.51" y="-42.4" font-family="sans-serif" font-weight="bold" font-size="14.00">Legend</text>
<polygon fill="#ffffb3" stroke="transparent" points="1191.5,-10 1191.5,-30 1211.5,-30 1211.5,-10 1191.5,-10"/>
<text text-anchor="start" x="1215.13" y="-15.4" font-family="sans-serif" font-size="14.00"> &#160;Declarations</text>
<polygon fill="#8dd3c7" stroke="transparent" points="1304.5,-10 1304.5,-30 1324.5,-30 1324.5,-10 1304.5,-10"/>
<text text-anchor="start" x="1328.23" y="-15.4" font-family="sans-serif" font-size="14.00"> &#160;Module</text>
<polygon fill="#80b1d3" stroke="transparent" points="1390.5,-10 1390.5,-30 1410.5,-30 1410.5,-10 1390.5,-10"/>
<text text-anchor="start" x="1414.28" y="-15.4" font-family="sans-serif" font-size="14.00"> &#160;Bootstrap</text>
<polygon fill="#fdb462" stroke="transparent" points="1487.5,-10 1487.5,-30 1507.5,-30 1507.5,-10 1487.5,-10"/>
<text text-anchor="start" x="1511.17" y="-15.4" font-family="sans-serif" font-size="14.00"> &#160;Providers</text>
<polygon fill="#fb8072" stroke="transparent" points="1583.5,-10 1583.5,-30 1603.5,-30 1603.5,-10 1583.5,-10"/>
<text text-anchor="start" x="1607.23" y="-15.4" font-family="sans-serif" font-size="14.00"> &#160;Exports</text>
<g id="clust1" class="cluster">
<title>cluster_AppModule</title>
<polygon fill="none" stroke="black" stroke-dasharray="1,5" points="8,-70 8,-268 2843,-268 2843,-70 8,-70"/>
</g>
<g id="clust18" class="cluster">
<title>cluster_AppModule_imports</title>
<polygon fill="none" stroke="black" points="2587,-78 2587,-130 2835,-130 2835,-78 2587,-78"/>
</g>
<g id="clust20" class="cluster">
<title>cluster_AppModule_bootstrap</title>
<polygon fill="none" stroke="black" points="1354,-208 1354,-260 1478,-260 1478,-208 1354,-208"/>
</g>
<g id="clust21" class="cluster">
<title>cluster_AppModule_providers</title>
<polygon fill="none" stroke="black" points="2157,-78 2157,-130 2579,-130 2579,-78 2157,-78"/>
</g>
<g id="clust2" class="cluster">
<title>cluster_AppModule_declarations</title>
<polygon fill="none" stroke="black" points="16,-78 16,-130 2149,-130 2149,-78 16,-78"/>
</g>
<!-- AppComponent -->
<g id="node1" class="node">
<title>AppComponent</title>
<polygon fill="#ffffb3" stroke="black" points="2140.94,-122 2035.06,-122 2035.06,-86 2140.94,-86 2140.94,-122"/>
<text text-anchor="middle" x="2088" y="-99.8" font-family="Times,serif" font-size="14.00">AppComponent</text>
</g>
<!-- AppModule -->
<g id="node16" class="node">
<title>AppModule</title>
<polygon fill="#8dd3c7" stroke="black" points="1457.66,-187 1454.66,-191 1433.66,-191 1430.66,-187 1374.34,-187 1374.34,-151 1457.66,-151 1457.66,-187"/>
<text text-anchor="middle" x="1416" y="-164.8" font-family="Times,serif" font-size="14.00">AppModule</text>
</g>
<!-- AppComponent&#45;&gt;AppModule -->
<g id="edge1" class="edge">
<title>AppComponent&#45;&gt;AppModule</title>
<path fill="none" stroke="black" d="M2088,-122.11C2088,-141.34 2088,-169 2088,-169 2088,-169 1467.78,-169 1467.78,-169"/>
<polygon fill="black" stroke="black" points="1467.78,-165.5 1457.78,-169 1467.78,-172.5 1467.78,-165.5"/>
</g>
<!-- BodyComponent -->
<g id="node2" class="node">
<title>BodyComponent</title>
<polygon fill="#ffffb3" stroke="black" points="2016.67,-122 1905.33,-122 1905.33,-86 2016.67,-86 2016.67,-122"/>
<text text-anchor="middle" x="1961" y="-99.8" font-family="Times,serif" font-size="14.00">BodyComponent</text>
</g>
<!-- BodyComponent&#45;&gt;AppModule -->
<g id="edge2" class="edge">
<title>BodyComponent&#45;&gt;AppModule</title>
<path fill="none" stroke="black" d="M1961,-122.27C1961,-140.56 1961,-166 1961,-166 1961,-166 1467.86,-166 1467.86,-166"/>
<polygon fill="black" stroke="black" points="1467.86,-162.5 1457.86,-166 1467.86,-169.5 1467.86,-162.5"/>
</g>
<!-- DialogComponent -->
<g id="node3" class="node">
<title>DialogComponent</title>
<polygon fill="#ffffb3" stroke="black" points="1886.94,-122 1767.06,-122 1767.06,-86 1886.94,-86 1886.94,-122"/>
<text text-anchor="middle" x="1827" y="-99.8" font-family="Times,serif" font-size="14.00">DialogComponent</text>
</g>
<!-- DialogComponent&#45;&gt;AppModule -->
<g id="edge3" class="edge">
<title>DialogComponent&#45;&gt;AppModule</title>
<path fill="none" stroke="black" d="M1827,-122.03C1827,-139.06 1827,-162 1827,-162 1827,-162 1467.67,-162 1467.67,-162"/>
<polygon fill="black" stroke="black" points="1467.67,-158.5 1457.67,-162 1467.67,-165.5 1467.67,-158.5"/>
</g>
<!-- EventsComponent -->
<g id="node4" class="node">
<title>EventsComponent</title>
<polygon fill="#ffffb3" stroke="black" points="1749.94,-122 1630.06,-122 1630.06,-86 1749.94,-86 1749.94,-122"/>
<text text-anchor="middle" x="1690" y="-99.8" font-family="Times,serif" font-size="14.00">EventsComponent</text>
</g>
<!-- EventsComponent&#45;&gt;AppModule -->
<g id="edge4" class="edge">
<title>EventsComponent&#45;&gt;AppModule</title>
<path fill="none" stroke="black" d="M1690,-122.01C1690,-138.05 1690,-159 1690,-159 1690,-159 1467.91,-159 1467.91,-159"/>
<polygon fill="black" stroke="black" points="1467.91,-155.5 1457.91,-159 1467.91,-162.5 1467.91,-155.5"/>
</g>
<!-- ExamsComponent -->
<g id="node5" class="node">
<title>ExamsComponent</title>
<polygon fill="#ffffb3" stroke="black" points="1612.94,-122 1493.06,-122 1493.06,-86 1612.94,-86 1612.94,-122"/>
<text text-anchor="middle" x="1553" y="-99.8" font-family="Times,serif" font-size="14.00">ExamsComponent</text>
</g>
<!-- ExamsComponent&#45;&gt;AppModule -->
<g id="edge5" class="edge">
<title>ExamsComponent&#45;&gt;AppModule</title>
<path fill="none" stroke="black" d="M1553,-122.12C1553,-136.78 1553,-155 1553,-155 1553,-155 1467.85,-155 1467.85,-155"/>
<polygon fill="black" stroke="black" points="1467.85,-151.5 1457.85,-155 1467.85,-158.5 1467.85,-151.5"/>
</g>
<!-- FooterComponent -->
<g id="node6" class="node">
<title>FooterComponent</title>
<polygon fill="#ffffb3" stroke="black" points="1474.88,-122 1357.12,-122 1357.12,-86 1474.88,-86 1474.88,-122"/>
<text text-anchor="middle" x="1416" y="-99.8" font-family="Times,serif" font-size="14.00">FooterComponent</text>
</g>
<!-- FooterComponent&#45;&gt;AppModule -->
<g id="edge6" class="edge">
<title>FooterComponent&#45;&gt;AppModule</title>
<path fill="none" stroke="black" d="M1416,-122.11C1416,-122.11 1416,-140.99 1416,-140.99"/>
<polygon fill="black" stroke="black" points="1412.5,-140.99 1416,-150.99 1419.5,-140.99 1412.5,-140.99"/>
</g>
<!-- FreeRoomComponent -->
<g id="node7" class="node">
<title>FreeRoomComponent</title>
<polygon fill="#ffffb3" stroke="black" points="1339.43,-122 1198.57,-122 1198.57,-86 1339.43,-86 1339.43,-122"/>
<text text-anchor="middle" x="1269" y="-99.8" font-family="Times,serif" font-size="14.00">FreeRoomComponent</text>
</g>
<!-- FreeRoomComponent&#45;&gt;AppModule -->
<g id="edge7" class="edge">
<title>FreeRoomComponent&#45;&gt;AppModule</title>
<path fill="none" stroke="black" d="M1269,-122.12C1269,-136.78 1269,-155 1269,-155 1269,-155 1364.27,-155 1364.27,-155"/>
<polygon fill="black" stroke="black" points="1364.27,-158.5 1374.27,-155 1364.27,-151.5 1364.27,-158.5"/>
</g>
<!-- HeaderComponent -->
<g id="node8" class="node">
<title>HeaderComponent</title>
<polygon fill="#ffffb3" stroke="black" points="1180.74,-122 1059.26,-122 1059.26,-86 1180.74,-86 1180.74,-122"/>
<text text-anchor="middle" x="1120" y="-99.8" font-family="Times,serif" font-size="14.00">HeaderComponent</text>
</g>
<!-- HeaderComponent&#45;&gt;AppModule -->
<g id="edge8" class="edge">
<title>HeaderComponent&#45;&gt;AppModule</title>
<path fill="none" stroke="black" d="M1120,-122.01C1120,-138.05 1120,-159 1120,-159 1120,-159 1364.22,-159 1364.22,-159"/>
<polygon fill="black" stroke="black" points="1364.22,-162.5 1374.22,-159 1364.22,-155.5 1364.22,-162.5"/>
</g>
<!-- InfoComponent -->
<g id="node9" class="node">
<title>InfoComponent</title>
<polygon fill="#ffffb3" stroke="black" points="1041.15,-122 936.85,-122 936.85,-86 1041.15,-86 1041.15,-122"/>
<text text-anchor="middle" x="989" y="-99.8" font-family="Times,serif" font-size="14.00">InfoComponent</text>
</g>
<!-- InfoComponent&#45;&gt;AppModule -->
<g id="edge9" class="edge">
<title>InfoComponent&#45;&gt;AppModule</title>
<path fill="none" stroke="black" d="M989,-122.03C989,-139.06 989,-162 989,-162 989,-162 1364.28,-162 1364.28,-162"/>
<polygon fill="black" stroke="black" points="1364.28,-165.5 1374.28,-162 1364.28,-158.5 1364.28,-165.5"/>
</g>
<!-- LecturesPlanComponent -->
<g id="node10" class="node">
<title>LecturesPlanComponent</title>
<polygon fill="#ffffb3" stroke="black" points="918.41,-122 763.59,-122 763.59,-86 918.41,-86 918.41,-122"/>
<text text-anchor="middle" x="841" y="-99.8" font-family="Times,serif" font-size="14.00">LecturesPlanComponent</text>
</g>
<!-- LecturesPlanComponent&#45;&gt;AppModule -->
<g id="edge10" class="edge">
<title>LecturesPlanComponent&#45;&gt;AppModule</title>
<path fill="none" stroke="black" d="M841,-122.27C841,-140.56 841,-166 841,-166 841,-166 1364.18,-166 1364.18,-166"/>
<polygon fill="black" stroke="black" points="1364.18,-169.5 1374.18,-166 1364.18,-162.5 1364.18,-169.5"/>
</g>
<!-- LoginComponent -->
<g id="node11" class="node">
<title>LoginComponent</title>
<polygon fill="#ffffb3" stroke="black" points="745.28,-122 630.72,-122 630.72,-86 745.28,-86 745.28,-122"/>
<text text-anchor="middle" x="688" y="-99.8" font-family="Times,serif" font-size="14.00">LoginComponent</text>
</g>
<!-- LoginComponent&#45;&gt;AppModule -->
<g id="edge11" class="edge">
<title>LoginComponent&#45;&gt;AppModule</title>
<path fill="none" stroke="black" d="M688,-122.11C688,-141.34 688,-169 688,-169 688,-169 1364.24,-169 1364.24,-169"/>
<polygon fill="black" stroke="black" points="1364.24,-172.5 1374.24,-169 1364.24,-165.5 1364.24,-172.5"/>
</g>
<!-- MensaComponent -->
<g id="node12" class="node">
<title>MensaComponent</title>
<polygon fill="#ffffb3" stroke="black" points="612.15,-122 493.85,-122 493.85,-86 612.15,-86 612.15,-122"/>
<text text-anchor="middle" x="553" y="-99.8" font-family="Times,serif" font-size="14.00">MensaComponent</text>
</g>
<!-- MensaComponent&#45;&gt;AppModule -->
<g id="edge12" class="edge">
<title>MensaComponent&#45;&gt;AppModule</title>
<path fill="none" stroke="black" d="M553,-122.13C553,-142.57 553,-173 553,-173 553,-173 1364.08,-173 1364.08,-173"/>
<polygon fill="black" stroke="black" points="1364.08,-176.5 1374.08,-173 1364.08,-169.5 1364.08,-176.5"/>
</g>
<!-- NachrichtenComponent -->
<g id="node13" class="node">
<title>NachrichtenComponent</title>
<polygon fill="#ffffb3" stroke="black" points="475.74,-122 326.26,-122 326.26,-86 475.74,-86 475.74,-122"/>
<text text-anchor="middle" x="401" y="-99.8" font-family="Times,serif" font-size="14.00">NachrichtenComponent</text>
</g>
<!-- NachrichtenComponent&#45;&gt;AppModule -->
<g id="edge13" class="edge">
<title>NachrichtenComponent&#45;&gt;AppModule</title>
<path fill="none" stroke="black" d="M401,-122.04C401,-143.66 401,-177 401,-177 401,-177 1364.32,-177 1364.32,-177"/>
<polygon fill="black" stroke="black" points="1364.32,-180.5 1374.32,-177 1364.32,-173.5 1364.32,-180.5"/>
</g>
<!-- NavbarComponent -->
<g id="node14" class="node">
<title>NavbarComponent</title>
<polygon fill="#ffffb3" stroke="black" points="308.03,-122 185.97,-122 185.97,-86 308.03,-86 308.03,-122"/>
<text text-anchor="middle" x="247" y="-99.8" font-family="Times,serif" font-size="14.00">NavbarComponent</text>
</g>
<!-- NavbarComponent&#45;&gt;AppModule -->
<g id="edge14" class="edge">
<title>NavbarComponent&#45;&gt;AppModule</title>
<path fill="none" stroke="black" d="M247,-122.01C247,-144.49 247,-180 247,-180 247,-180 1364.05,-180 1364.05,-180"/>
<polygon fill="black" stroke="black" points="1364.05,-183.5 1374.05,-180 1364.05,-176.5 1364.05,-183.5"/>
</g>
<!-- NavigationComponent -->
<g id="node15" class="node">
<title>NavigationComponent</title>
<polygon fill="#ffffb3" stroke="black" points="167.54,-122 24.46,-122 24.46,-86 167.54,-86 167.54,-122"/>
<text text-anchor="middle" x="96" y="-99.8" font-family="Times,serif" font-size="14.00">NavigationComponent</text>
</g>
<!-- NavigationComponent&#45;&gt;AppModule -->
<g id="edge15" class="edge">
<title>NavigationComponent&#45;&gt;AppModule</title>
<path fill="none" stroke="black" d="M96,-122.15C96,-145.76 96,-184 96,-184 96,-184 1364.31,-184 1364.31,-184"/>
<polygon fill="black" stroke="black" points="1364.31,-187.5 1374.31,-184 1364.31,-180.5 1364.31,-187.5"/>
</g>
<!-- AppComponent  -->
<g id="node19" class="node">
<title>AppComponent </title>
<polygon fill="#80b1d3" stroke="black" points="1470.44,-252 1361.56,-252 1361.56,-216 1470.44,-216 1470.44,-252"/>
<text text-anchor="middle" x="1416" y="-229.8" font-family="Times,serif" font-size="14.00">AppComponent </text>
</g>
<!-- AppModule&#45;&gt;AppComponent  -->
<g id="edge18" class="edge">
<title>AppModule&#45;&gt;AppComponent </title>
<path fill="none" stroke="black" stroke-dasharray="1,5" d="M1416,-187.11C1416,-187.11 1416,-205.99 1416,-205.99"/>
<polygon fill="black" stroke="black" points="1412.5,-205.99 1416,-215.99 1419.5,-205.99 1412.5,-205.99"/>
</g>
<!-- AppRoutingModule -->
<g id="node17" class="node">
<title>AppRoutingModule</title>
<polygon fill="#8dd3c7" stroke="black" points="2827.27,-122 2824.27,-126 2803.27,-126 2800.27,-122 2698.73,-122 2698.73,-86 2827.27,-86 2827.27,-122"/>
<text text-anchor="middle" x="2763" y="-99.8" font-family="Times,serif" font-size="14.00">AppRoutingModule</text>
</g>
<!-- AppRoutingModule&#45;&gt;AppModule -->
<g id="edge16" class="edge">
<title>AppRoutingModule&#45;&gt;AppModule</title>
<path fill="none" stroke="black" d="M2763,-122.15C2763,-145.76 2763,-184 2763,-184 2763,-184 1467.79,-184 1467.79,-184"/>
<polygon fill="black" stroke="black" points="1467.79,-180.5 1457.79,-184 1467.79,-187.5 1467.79,-180.5"/>
</g>
<!-- I18nModule -->
<g id="node18" class="node">
<title>I18nModule</title>
<polygon fill="#8dd3c7" stroke="black" points="2680.71,-122 2677.71,-126 2656.71,-126 2653.71,-122 2595.29,-122 2595.29,-86 2680.71,-86 2680.71,-122"/>
<text text-anchor="middle" x="2638" y="-99.8" font-family="Times,serif" font-size="14.00">I18nModule</text>
</g>
<!-- I18nModule&#45;&gt;AppModule -->
<g id="edge17" class="edge">
<title>I18nModule&#45;&gt;AppModule</title>
<path fill="none" stroke="black" d="M2638,-122.01C2638,-144.49 2638,-180 2638,-180 2638,-180 1467.71,-180 1467.71,-180"/>
<polygon fill="black" stroke="black" points="1467.71,-176.5 1457.71,-180 1467.71,-183.5 1467.71,-176.5"/>
</g>
<!-- AuthorizationService -->
<g id="node20" class="node">
<title>AuthorizationService</title>
<ellipse fill="#fdb462" stroke="black" cx="2477" cy="-104" rx="93.76" ry="18"/>
<text text-anchor="middle" x="2477" y="-99.8" font-family="Times,serif" font-size="14.00">AuthorizationService</text>
</g>
<!-- AuthorizationService&#45;&gt;AppModule -->
<g id="edge19" class="edge">
<title>AuthorizationService&#45;&gt;AppModule</title>
<path fill="none" stroke="black" d="M2477,-122.04C2477,-143.66 2477,-177 2477,-177 2477,-177 1467.92,-177 1467.92,-177"/>
<polygon fill="black" stroke="black" points="1467.92,-173.5 1457.92,-177 1467.92,-180.5 1467.92,-173.5"/>
</g>
<!-- SideNavigationService -->
<g id="node21" class="node">
<title>SideNavigationService</title>
<ellipse fill="#fdb462" stroke="black" cx="2265" cy="-104" rx="100.14" ry="18"/>
<text text-anchor="middle" x="2265" y="-99.8" font-family="Times,serif" font-size="14.00">SideNavigationService</text>
</g>
<!-- SideNavigationService&#45;&gt;AppModule -->
<g id="edge20" class="edge">
<title>SideNavigationService&#45;&gt;AppModule</title>
<path fill="none" stroke="black" d="M2265,-122.13C2265,-142.57 2265,-173 2265,-173 2265,-173 1467.81,-173 1467.81,-173"/>
<polygon fill="black" stroke="black" points="1467.81,-169.5 1457.81,-173 1467.81,-176.5 1467.81,-169.5"/>
</g>
</g>
</svg>
